<svg xmlns="http://www.w3.org/2000/svg" xmlns:xlink="http://www.w3.org/1999/xlink" width="400" zoomAndPan="magnify" viewBox="0 0 300 74.999997" height="100" preserveAspectRatio="xMidYMid meet" version="1.0"><defs><g/><clipPath id="0317db1426"><path d="M 0.75 6.503906 L 107 6.503906 L 107 68.753906 L 0.75 68.753906 Z M 0.75 6.503906 " clip-rule="nonzero"/></clipPath></defs><g clip-path="url(#0317db1426)"><path fill="#6366f1" d="M 104.394531 63.445312 L 102.082031 63.445312 C 102.082031 43.585938 90.007812 26.546875 72.796875 19.269531 C 69.074219 17.691406 65.207031 16.609375 61.207031 16.019531 C 61.417969 15.324219 61.519531 14.613281 61.519531 13.890625 C 61.519531 9.816406 58.207031 6.503906 54.136719 6.503906 C 50.066406 6.503906 46.753906 9.816406 46.753906 13.890625 C 46.753906 14.613281 46.855469 15.324219 47.066406 16.019531 C 23.9375 19.4375 6.191406 39.367188 6.191406 63.445312 L 3.304688 63.445312 C 2.96875 63.445312 2.648438 63.511719 2.335938 63.640625 C 2.027344 63.765625 1.753906 63.949219 1.519531 64.1875 C 1.28125 64.421875 1.097656 64.695312 0.96875 65.003906 C 0.84375 65.316406 0.777344 65.636719 0.777344 65.972656 C 0.777344 66.308594 0.84375 66.628906 0.96875 66.9375 C 1.097656 67.25 1.28125 67.519531 1.519531 67.757812 C 1.753906 67.996094 2.027344 68.175781 2.335938 68.304688 C 2.648438 68.433594 2.96875 68.5 3.304688 68.5 L 47.03125 68.5 L 46.15625 66.269531 L 45.171875 63.742188 L 45.058594 63.445312 L 44.1875 61.210938 C 43.980469 60.671875 43.671875 60.195312 43.269531 59.785156 C 42.863281 59.371094 42.394531 59.058594 41.859375 58.839844 L 36.777344 56.769531 C 36.082031 56.488281 35.464844 56.089844 34.921875 55.574219 C 34.378906 55.054688 33.949219 54.460938 33.632812 53.78125 L 28.066406 41.839844 C 27.996094 41.683594 27.957031 41.519531 27.949219 41.351562 C 27.941406 41.179688 27.964844 41.011719 28.023438 40.851562 C 28.082031 40.691406 28.171875 40.546875 28.285156 40.421875 C 28.402344 40.292969 28.539062 40.195312 28.691406 40.121094 C 28.847656 40.050781 29.011719 40.007812 29.183594 40 C 29.355469 39.996094 29.519531 40.019531 29.679688 40.078125 C 29.84375 40.136719 29.988281 40.222656 30.113281 40.339844 C 30.238281 40.457031 30.339844 40.589844 30.410156 40.746094 L 35.066406 50.730469 C 35.121094 50.84375 35.195312 50.945312 35.289062 51.03125 C 35.382812 51.113281 35.488281 51.179688 35.605469 51.21875 C 35.726562 51.261719 35.847656 51.28125 35.972656 51.273438 C 36.101562 51.265625 36.21875 51.234375 36.332031 51.179688 C 36.796875 50.953125 36.984375 50.382812 36.765625 49.914062 L 32.148438 40.015625 C 32.074219 39.851562 32.03125 39.679688 32.023438 39.5 C 32.015625 39.320312 32.042969 39.144531 32.105469 38.976562 C 32.167969 38.804688 32.261719 38.65625 32.382812 38.523438 C 32.503906 38.390625 32.648438 38.285156 32.8125 38.210938 C 32.972656 38.132812 33.144531 38.089844 33.324219 38.082031 C 33.503906 38.074219 33.679688 38.101562 33.851562 38.164062 C 34.019531 38.222656 34.171875 38.316406 34.304688 38.4375 C 34.4375 38.558594 34.542969 38.699219 34.621094 38.863281 L 39.246094 48.78125 C 39.296875 48.894531 39.371094 48.992188 39.464844 49.078125 C 39.558594 49.164062 39.664062 49.226562 39.785156 49.269531 C 39.902344 49.3125 40.027344 49.328125 40.152344 49.320312 C 40.277344 49.316406 40.398438 49.285156 40.511719 49.226562 C 40.742188 49.109375 40.902344 48.929688 40.984375 48.683594 C 41.070312 48.4375 41.054688 48.199219 40.941406 47.964844 L 36.328125 38.0625 C 36.25 37.898438 36.207031 37.726562 36.199219 37.546875 C 36.191406 37.367188 36.21875 37.191406 36.28125 37.019531 C 36.34375 36.851562 36.433594 36.699219 36.554688 36.566406 C 36.679688 36.433594 36.820312 36.328125 36.984375 36.25 C 37.148438 36.175781 37.320312 36.132812 37.503906 36.125 C 37.683594 36.117188 37.859375 36.144531 38.027344 36.207031 C 38.199219 36.265625 38.351562 36.359375 38.484375 36.480469 C 38.617188 36.605469 38.722656 36.746094 38.796875 36.910156 L 43.421875 46.832031 C 43.476562 46.949219 43.550781 47.046875 43.640625 47.132812 C 43.734375 47.21875 43.84375 47.28125 43.960938 47.324219 C 44.082031 47.367188 44.203125 47.382812 44.328125 47.375 C 44.457031 47.367188 44.574219 47.335938 44.691406 47.28125 C 44.921875 47.164062 45.078125 46.984375 45.160156 46.738281 C 45.246094 46.492188 45.230469 46.253906 45.121094 46.019531 L 40.472656 36.054688 C 40.402344 35.898438 40.367188 35.738281 40.359375 35.566406 C 40.355469 35.398438 40.382812 35.234375 40.441406 35.074219 C 40.5 34.914062 40.585938 34.773438 40.703125 34.648438 C 40.816406 34.523438 40.953125 34.425781 41.105469 34.355469 C 41.261719 34.28125 41.421875 34.242188 41.589844 34.234375 C 41.761719 34.226562 41.925781 34.25 42.085938 34.308594 C 42.246094 34.363281 42.390625 34.449219 42.515625 34.5625 C 42.640625 34.675781 42.742188 34.808594 42.816406 34.960938 L 48.382812 46.902344 C 48.699219 47.582031 48.882812 48.292969 48.929688 49.039062 C 48.976562 49.789062 48.882812 50.519531 48.65625 51.230469 L 46.976562 56.453125 C 46.796875 57.003906 46.738281 57.566406 46.792969 58.140625 C 46.847656 58.714844 47.015625 59.253906 47.292969 59.761719 L 48.601562 62.140625 L 49.316406 63.445312 L 49.90625 64.523438 L 51.203125 66.90625 L 52.070312 68.5 L 71.179688 68.5 L 70.472656 66.710938 L 69.472656 64.1875 L 69.183594 63.449219 L 68.484375 61.660156 L 67.492188 59.132812 L 66.503906 56.605469 L 65.519531 54.074219 C 65.308594 53.523438 64.96875 53.070312 64.496094 52.714844 C 64.023438 52.359375 63.492188 52.15625 62.90625 52.105469 C 59.351562 51.804688 55.585938 48.890625 53.5 44.417969 C 50.738281 38.496094 51.960938 32.082031 56.226562 30.089844 C 60.496094 28.101562 66.195312 31.289062 68.957031 37.210938 C 71.042969 41.683594 70.855469 46.4375 68.800781 49.355469 C 68.425781 49.882812 68.238281 50.472656 68.242188 51.121094 C 68.242188 51.65625 68.371094 52.15625 68.628906 52.625 L 69.933594 55.003906 L 71.234375 57.382812 L 72.535156 59.769531 L 73.832031 62.152344 L 74.53125 63.445312 L 75.121094 64.535156 L 76.414062 66.921875 L 77.265625 68.496094 L 104.394531 68.496094 C 104.726562 68.496094 105.050781 68.433594 105.359375 68.304688 C 105.667969 68.175781 105.9375 67.992188 106.175781 67.753906 C 106.410156 67.519531 106.59375 67.246094 106.722656 66.9375 C 106.851562 66.628906 106.914062 66.304688 106.914062 65.972656 C 106.914062 65.636719 106.851562 65.316406 106.722656 65.003906 C 106.59375 64.695312 106.410156 64.421875 106.175781 64.1875 C 105.9375 63.949219 105.667969 63.769531 105.359375 63.640625 C 105.050781 63.511719 104.726562 63.445312 104.394531 63.445312 Z M 56.355469 15.554688 C 55.621094 15.519531 54.878906 15.5 54.136719 15.5 C 53.394531 15.5 52.652344 15.519531 51.917969 15.554688 C 51.710938 15.277344 51.5625 14.972656 51.46875 14.640625 C 51.375 14.308594 51.34375 13.96875 51.375 13.625 C 51.410156 13.285156 51.503906 12.957031 51.65625 12.648438 C 51.8125 12.339844 52.015625 12.070312 52.269531 11.835938 C 52.527344 11.605469 52.816406 11.425781 53.136719 11.300781 C 53.457031 11.175781 53.792969 11.113281 54.136719 11.113281 C 54.480469 11.113281 54.816406 11.175781 55.136719 11.300781 C 55.460938 11.425781 55.746094 11.605469 56.003906 11.835938 C 56.257812 12.070312 56.464844 12.339844 56.617188 12.648438 C 56.773438 12.957031 56.867188 13.285156 56.898438 13.625 C 56.929688 13.96875 56.898438 14.308594 56.804688 14.640625 C 56.710938 14.972656 56.5625 15.277344 56.355469 15.554688 Z M 56.355469 15.554688 " fill-opacity="1" fill-rule="nonzero"/></g><g fill="#ffffff" fill-opacity="1"><g transform="translate(106.505916, 48.229207)"><g><path d="M 12.265625 0 L 7.375 0 L 7.375 -6.46875 L 0.421875 -20.078125 L 5.96875 -20.078125 L 9.84375 -11.015625 L 13.671875 -20.078125 L 19.21875 -20.078125 L 12.265625 -6.46875 Z M 12.265625 0 "/></g></g></g><g fill="#ffffff" fill-opacity="1"><g transform="translate(129.715566, 48.229207)"><g><path d="M 2.0625 -8.09375 L 2.0625 -20.078125 L 6.953125 -20.078125 L 6.953125 -8.09375 C 6.953125 -6.894531 7.242188 -5.96875 7.828125 -5.3125 C 8.421875 -4.664062 9.289062 -4.34375 10.4375 -4.34375 C 11.582031 -4.34375 12.457031 -4.664062 13.0625 -5.3125 C 13.675781 -5.96875 13.984375 -6.894531 13.984375 -8.09375 L 13.984375 -20.078125 L 18.875 -20.078125 L 18.875 -8.09375 C 18.875 -6.320312 18.457031 -4.789062 17.625 -3.5 C 16.800781 -2.21875 15.753906 -1.28125 14.484375 -0.6875 C 13.210938 -0.09375 11.832031 0.203125 10.34375 0.203125 C 8.019531 0.203125 6.054688 -0.519531 4.453125 -1.96875 C 2.859375 -3.414062 2.0625 -5.457031 2.0625 -8.09375 Z M 2.0625 -8.09375 "/></g></g></g><g fill="#ffffff" fill-opacity="1"><g transform="translate(154.182821, 48.229207)"><g><path d="M 24.875 -20.078125 L 24.875 0 L 19.984375 0 L 19.984375 -11.328125 L 15.328125 0 L 11.6875 0 L 7.03125 -11.328125 L 7.03125 0 L 2.140625 0 L 2.140625 -20.078125 L 7.75 -20.078125 L 13.53125 -6.234375 L 19.265625 -20.078125 Z M 24.875 -20.078125 "/></g></g></g><g fill="#ffffff" fill-opacity="1"><g transform="translate(184.766621, 48.229207)"><g><path d="M 14.890625 0 L 13.78125 -3.375 L 6.578125 -3.375 L 5.46875 0 L 0.25 0 L 7.234375 -20.125 L 13.1875 -20.125 L 20.125 0 Z M 7.8125 -7.09375 L 12.546875 -7.09375 L 10.171875 -14.234375 Z M 7.8125 -7.09375 "/></g></g></g><g fill="#ffffff" fill-opacity="1"><g transform="translate(208.719407, 48.229207)"><g><path d="M 2.140625 -20.078125 L 7.03125 -20.078125 L 7.03125 -3.71875 L 13.125 -3.71875 L 13.125 0 L 2.140625 0 Z M 2.140625 -20.078125 "/></g></g></g><g fill="#ffffff" fill-opacity="1"><g transform="translate(225.983997, 48.229207)"><g><path d="M 14.890625 0 L 13.78125 -3.375 L 6.578125 -3.375 L 5.46875 0 L 0.25 0 L 7.234375 -20.125 L 13.1875 -20.125 L 20.125 0 Z M 7.8125 -7.09375 L 12.546875 -7.09375 L 10.171875 -14.234375 Z M 7.8125 -7.09375 "/></g></g></g><g fill="#ffffff" fill-opacity="1"><g transform="translate(249.936776, 48.229207)"><g><path d="M 7.03125 -7.8125 L 7.03125 0 L 2.140625 0 L 2.140625 -20.078125 L 10.0625 -20.078125 C 12.382812 -20.078125 14.191406 -19.472656 15.484375 -18.265625 C 16.785156 -17.066406 17.4375 -15.617188 17.4375 -13.921875 C 17.4375 -12.765625 17.082031 -11.628906 16.375 -10.515625 C 15.675781 -9.410156 14.523438 -8.628906 12.921875 -8.171875 L 17.84375 0 L 12.125 0 L 7.609375 -7.8125 Z M 7.03125 -16.359375 L 7.03125 -11.515625 L 10.0625 -11.515625 C 10.8125 -11.515625 11.398438 -11.734375 11.828125 -12.171875 C 12.253906 -12.617188 12.46875 -13.195312 12.46875 -13.90625 C 12.46875 -14.625 12.25 -15.210938 11.8125 -15.671875 C 11.375 -16.128906 10.789062 -16.359375 10.0625 -16.359375 Z M 7.03125 -16.359375 "/></g></g></g><g fill="#ffffff" fill-opacity="1"><g transform="translate(272.603366, 48.229207)"><g><path d="M 24.875 -20.078125 L 24.875 0 L 19.984375 0 L 19.984375 -11.328125 L 15.328125 0 L 11.6875 0 L 7.03125 -11.328125 L 7.03125 0 L 2.140625 0 L 2.140625 -20.078125 L 7.75 -20.078125 L 13.53125 -6.234375 L 19.265625 -20.078125 Z M 24.875 -20.078125 "/></g></g></g></svg>